<svg width="1720" height="244" viewBox="0 0 1720 244" fill="none" xmlns="http://www.w3.org/2000/svg">
<path d="M1167 193.061C1153.03 193.061 1141.03 188.65 1132.94 180.076C1126.08 173.215 1121.92 162.926 1121.92 149.941V72.7655C1121.92 50.4705 1109.42 48.5105 1108.2 48.5105V48.0205H1155.24V145.776C1155.24 153.371 1156.22 161.701 1159.4 168.561C1163.32 176.401 1169.94 181.546 1179.98 181.546C1199.09 181.546 1213.79 163.661 1214.53 140.386V72.7655C1214.53 50.4705 1202.03 48.5105 1200.81 48.5105V48.0205H1247.85V166.111C1247.85 188.161 1260.59 190.366 1261.81 190.366V190.611H1214.53V163.171C1208.65 177.871 1194.44 193.061 1167 193.061Z" fill="#5A1118"/>
<path d="M1006.8 238.385C1020.52 238.385 1029.83 233.24 1035.46 225.4C1043.55 214.375 1045.26 198.45 1045.26 185.465V170.03C1038.16 183.26 1023.21 193.305 1004.1 193.305C964.413 193.305 942.363 162.68 942.363 123.48C942.363 78.6453 967.108 45.5703 1008.51 45.5703C1029.09 45.5703 1039.87 55.3703 1045.26 63.2103V48.0203H1092.55V48.5103C1091.32 48.5103 1078.58 50.4703 1078.58 72.7653V180.565C1078.58 198.45 1073.19 213.395 1062.9 224.175C1050.16 237.405 1030.32 243.775 1011.21 243.775C986.218 243.775 971.028 235.445 961.963 235.445V196.98H962.453C964.658 209.72 969.803 219.765 976.418 226.38C986.463 235.935 998.713 238.385 1006.8 238.385ZM975.683 121.03C975.683 157.045 989.893 183.995 1013.41 183.995C1028.36 183.995 1039.63 174.685 1045.26 157.78V74.7253C1039.63 61.9853 1029.09 56.8403 1019.05 56.8403C995.283 56.8403 975.683 79.8703 975.683 121.03Z" fill="#5A1118"/>
<path d="M667.445 193.305C619.915 193.305 597.375 159.005 597.375 119.56C597.375 79.87 619.915 45.57 667.445 45.57C714.975 45.57 737.515 79.87 737.515 119.56C737.515 159.005 714.975 193.305 667.445 193.305ZM631.675 119.56C631.675 157.78 643.68 188.16 667.445 188.16C691.455 188.16 703.705 157.78 703.705 119.56C703.705 81.34 691.455 50.96 667.445 50.96C643.68 50.96 631.675 81.34 631.675 119.56ZM641.23 36.015C652.255 32.095 670.14 14.455 679.94 0H680.43L692.68 16.905V17.64C680.43 26.46 656.175 35.035 641.72 36.75L641.23 36.015Z" fill="#5A1118"/>
<path d="M528.32 193.305C481.77 193.305 458.25 161.455 458.25 120.295C458.25 79.8703 483.24 45.5703 532.975 45.5703C552.82 45.5703 569.97 52.9203 577.32 52.9203V93.1003H576.585C575.605 86.9753 574.38 73.0103 565.56 62.7203C559.925 56.1053 551.35 50.9603 538.365 50.9603C505.29 50.9603 492.55 81.8303 492.55 119.805C492.55 157.045 510.19 183.995 540.57 183.995C561.885 183.995 573.89 172.235 580.015 161.455L580.75 161.7C578.545 168.56 567.03 193.305 528.32 193.305Z" fill="#5A1118"/>
</svg>
