<svg width="1669" height="255" viewBox="0 0 1669 255" fill="none" xmlns="http://www.w3.org/2000/svg">
<path d="M1582.96 248.675C1596.68 248.675 1605.99 243.53 1611.63 235.69C1619.71 224.665 1621.43 208.74 1621.43 195.755V180.32C1614.32 193.55 1599.38 203.595 1580.27 203.595C1540.58 203.595 1518.53 172.97 1518.53 133.77C1518.53 88.9353 1543.27 55.8604 1584.68 55.8604C1605.26 55.8604 1616.04 65.6603 1621.43 73.5003V58.3103H1668.71V58.8003C1667.49 58.8003 1654.75 60.7603 1654.75 83.0553V190.855C1654.75 208.74 1649.36 223.685 1639.07 234.465C1626.33 247.695 1606.48 254.065 1587.37 254.065C1562.38 254.065 1547.19 245.735 1538.13 245.735V207.27H1538.62C1540.82 220.01 1545.97 230.055 1552.58 236.67C1562.63 246.225 1574.88 248.675 1582.96 248.675ZM1551.85 131.32C1551.85 167.335 1566.06 194.285 1589.58 194.285C1604.52 194.285 1615.79 184.975 1621.43 168.07V85.0154C1615.79 72.2753 1605.26 67.1303 1595.21 67.1303C1571.45 67.1303 1551.85 90.1603 1551.85 131.32Z" fill="#5A1118"/>
<path d="M1361.81 83.0553C1361.81 60.7603 1349.07 58.8003 1347.85 58.8003V58.3103H1395.13V85.9953C1401.01 71.0503 1415.47 55.8604 1442.66 55.8604C1456.63 55.8604 1468.63 60.2704 1476.72 68.8453C1483.58 75.9503 1487.74 85.9954 1487.74 98.9804V176.4C1487.74 198.45 1500.24 200.655 1501.71 200.655V200.9H1440.46V200.655C1441.68 200.655 1454.42 198.45 1454.42 176.4V103.145C1454.42 95.5504 1453.44 87.2203 1450.26 80.6053C1446.58 72.5203 1439.72 67.6203 1429.68 67.6203C1410.57 67.6203 1395.87 85.5053 1395.13 108.535V176.4C1395.13 198.45 1407.63 200.655 1409.1 200.655V200.9H1347.85V200.655C1349.07 200.655 1361.81 198.45 1361.81 176.4V83.0553Z" fill="#5A1118"/>
<path d="M1248.06 65.4146C1221.35 65.4146 1202.98 86.7296 1200.53 101.92L1199.79 101.675C1201.51 78.1546 1222.09 56.3496 1259.57 56.3496C1273.29 56.3496 1291.18 58.5546 1303.18 68.8446C1311.02 75.7046 1315.92 85.9946 1315.92 101.185V176.4C1315.92 198.45 1328.66 200.655 1329.89 200.655V200.9H1282.6V175.175C1275.5 188.405 1259.82 202.37 1233.11 202.37C1207.88 202.37 1191.95 189.875 1191.95 168.315C1191.95 136.71 1224.05 114.905 1282.6 113.925V102.9C1282.6 89.9146 1279.42 80.8496 1274.03 74.9696C1268.15 68.3546 1258.84 65.4146 1248.06 65.4146ZM1225.52 167.335C1225.52 179.83 1232.62 192.08 1247.57 192.08C1266.19 192.08 1279.91 174.93 1282.6 166.6V118.825C1238.75 119.56 1225.52 148.96 1225.52 167.335Z" fill="#5A1118"/>
<path d="M1069.41 84.7696C1059.61 62.7196 1045.16 58.7996 1042.95 58.7996V58.3096H1104.45V58.7996C1104.2 58.7996 1094.16 62.2296 1102.73 81.5846L1136.79 158.27L1170.35 81.5846C1178.93 62.2296 1168.88 58.7996 1168.64 58.7996V58.3096H1201.71V58.7996C1199.26 58.7996 1184.56 62.4746 1175.25 83.5446L1122.09 203.595L1069.41 84.7696Z" fill="#5A1118"/>
<path d="M898.83 248.675C912.55 248.675 921.86 243.53 927.495 235.69C935.58 224.665 937.295 208.74 937.295 195.755V180.32C930.19 193.55 915.245 203.595 896.135 203.595C856.445 203.595 834.395 172.97 834.395 133.77C834.395 88.9353 859.14 55.8604 900.545 55.8604C921.125 55.8604 931.905 65.6603 937.295 73.5003V58.3103H984.58V58.8003C983.355 58.8003 970.615 60.7603 970.615 83.0553V190.855C970.615 208.74 965.225 223.685 954.935 234.465C942.195 247.695 922.35 254.065 903.24 254.065C878.25 254.065 863.06 245.735 853.995 245.735V207.27H854.485C856.69 220.01 861.835 230.055 868.45 236.67C878.495 246.225 890.745 248.675 898.83 248.675ZM867.715 131.32C867.715 167.335 881.925 194.285 905.445 194.285C920.39 194.285 931.66 184.975 937.295 168.07V85.0154C931.66 72.2753 921.125 67.1303 911.08 67.1303C887.315 67.1303 867.715 90.1603 867.715 131.32Z" fill="#5A1118"/>
<path d="M677.676 83.0553C677.676 60.7603 664.936 58.8003 663.711 58.8003V58.3103H710.996V85.9953C716.876 71.0503 731.331 55.8604 758.526 55.8604C772.491 55.8604 784.496 60.2704 792.581 68.8453C799.441 75.9503 803.606 85.9954 803.606 98.9804V176.4C803.606 198.45 816.101 200.655 817.571 200.655V200.9H756.321V200.655C757.546 200.655 770.286 198.45 770.286 176.4V103.145C770.286 95.5504 769.306 87.2203 766.121 80.6053C762.446 72.5203 755.586 67.6203 745.541 67.6203C726.431 67.6203 711.731 85.5053 710.996 108.535V176.4C710.996 198.45 723.491 200.655 724.961 200.655V200.9H663.711V200.655C664.936 200.655 677.676 198.45 677.676 176.4V83.0553Z" fill="#5A1118"/>
<path d="M574.058 203.595C526.528 203.595 503.988 169.295 503.988 129.85C503.988 90.16 526.528 55.86 574.058 55.86C591.453 55.86 605.663 60.515 616.443 68.355C618.403 65.905 618.893 63.21 618.893 61.005C618.648 58.31 617.423 52.43 607.868 50.96V50.715L625.998 36.015C629.428 38.22 633.348 44.59 633.348 50.96C633.348 59.535 626.488 66.395 619.873 71.05C636.288 84.77 644.128 106.33 644.128 129.85C644.128 169.295 621.588 203.595 574.058 203.595ZM538.288 129.85C538.288 168.07 550.293 198.45 574.058 198.45C598.068 198.45 610.318 168.07 610.318 129.85C610.318 91.63 598.068 61.25 574.058 61.25C550.293 61.25 538.288 91.63 538.288 129.85ZM553.968 6.12501C558.868 2.69501 565.728 0 573.568 0C582.878 0 593.658 3.92001 593.658 14.21C593.658 29.4 569.158 30.625 569.158 44.1C568.668 44.1 567.933 43.365 567.933 42.385C567.933 26.215 576.263 24.99 576.263 13.475C576.263 7.84 573.568 5.88 570.383 5.88C562.543 5.88 558.133 16.66 557.888 27.93H556.908L553.968 6.12501Z" fill="#5A1118"/>
<path d="M385.058 203.35C371.093 203.35 359.088 198.94 351.003 190.365C344.143 183.505 339.978 173.215 339.978 160.23V83.0549C339.978 60.7599 327.483 58.7999 326.258 58.7999V58.3099H373.298V156.065C373.298 163.66 374.278 171.99 377.463 178.85C381.383 186.69 387.998 191.835 398.043 191.835C417.153 191.835 431.853 173.95 432.588 150.675V83.0549C432.588 60.7599 420.093 58.7999 418.868 58.7999V58.3099H465.908V67.8649C469.828 64.9249 471.298 61.4949 471.543 58.5549C471.788 55.8599 471.053 49.9799 461.743 47.2849V47.0399L481.588 34.5449C484.528 37.2399 487.713 43.8549 487.223 50.2249C485.753 61.2499 473.748 68.1099 465.908 71.2949V176.4C465.908 198.45 478.648 200.655 479.873 200.655V200.9H432.588V173.46C426.708 188.16 412.498 203.35 385.058 203.35Z" fill="#5A1118"/>
<path d="M173.164 29.4004C173.164 7.35039 160.669 5.14539 159.199 5.14539V4.90039H206.484V85.9954C212.609 71.0504 226.819 55.8604 254.014 55.8604C267.979 55.8604 280.229 60.2704 288.069 68.8454C294.929 75.9504 299.094 85.9954 299.094 98.9804V176.4C299.094 198.45 311.834 200.655 313.059 200.655V200.9H251.809V200.655C253.279 200.655 265.774 198.45 265.774 176.4V103.145C265.774 95.5504 265.039 87.2204 261.854 80.6054C257.934 72.5204 251.074 67.6204 241.029 67.6204C221.919 67.6204 207.219 85.5054 206.484 108.535V176.4C206.484 198.45 219.224 200.655 220.449 200.655V200.9H159.199V200.655C160.669 200.655 173.164 198.45 173.164 176.4V29.4004Z" fill="#5A1118"/>
<path d="M28.42 15.1898C2.695 15.1898 0.490002 45.0798 0.490002 48.2648H0V9.7998H153.37V48.2648H153.125C153.125 45.0798 150.675 15.1898 124.95 15.1898H93.59V175.42C93.59 198.45 106.82 200.655 108.045 200.655V200.9H45.325V200.655C46.55 200.655 59.78 198.45 59.78 175.42V15.1898H28.42Z" fill="#5A1118"/>
</svg>
