<svg width="48" height="48" viewBox="0 0 48 48" fill="none" xmlns="http://www.w3.org/2000/svg">
<path d="M43.5 12H4.5C3.67157 12 3 12.6716 3 13.5V34.5C3 35.3284 3.67157 36 4.5 36H43.5C44.3284 36 45 35.3284 45 34.5V13.5C45 12.6716 44.3284 12 43.5 12Z" stroke="#5A1118" stroke-width="1.5" stroke-linecap="round" stroke-linejoin="round"/>
<path d="M24 30C27.3137 30 30 27.3137 30 24C30 20.6863 27.3137 18 24 18C20.6863 18 18 20.6863 18 24C18 27.3137 20.6863 30 24 30Z" stroke="#5A1118" stroke-width="1.5" stroke-linecap="round" stroke-linejoin="round"/>
<path d="M33 12L45 22.5" stroke="#5A1118" stroke-width="1.5" stroke-linecap="round" stroke-linejoin="round"/>
<path d="M33 36L45 25.5" stroke="#5A1118" stroke-width="1.5" stroke-linecap="round" stroke-linejoin="round"/>
<path d="M15 12L3 22.5" stroke="#5A1118" stroke-width="1.5" stroke-linecap="round" stroke-linejoin="round"/>
<path d="M15 36L3 25.5" stroke="#5A1118" stroke-width="1.5" stroke-linecap="round" stroke-linejoin="round"/>
</svg>
