<svg width="48" height="48" viewBox="0 0 48 48" fill="none" xmlns="http://www.w3.org/2000/svg">
<path d="M24.808 40.1802C23.7606 40.3618 22.6854 40.4541 21.6117 40.4541C17.7965 40.4541 14.1212 39.2976 10.985 37.1106C10.7733 36.9634 10.5038 36.9348 10.2657 37.0337L3.64903 39.8052L6.42052 33.1885C6.5194 32.9512 6.49083 32.6802 6.34361 32.4692C4.1566 29.333 3.00011 25.6577 3.00011 21.8425C3.00011 11.5798 11.349 3.23096 21.6117 3.23096C31.8744 3.23096 40.2233 11.5798 40.2233 21.8425C40.2233 23.6633 39.9625 25.4585 39.4483 27.1775C39.3297 27.5737 39.5553 27.9919 39.9523 28.1106C40.3448 28.2278 40.7667 28.0037 40.8854 27.6067C41.4413 25.7485 41.7233 23.8091 41.7233 21.8425C41.7233 10.7529 32.7013 1.73096 21.6117 1.73096C10.5221 1.73096 1.50011 10.7529 1.50011 21.8425C1.50011 25.8284 2.66686 29.6714 4.8795 32.9849L1.55797 40.9141C1.44078 41.1953 1.5045 41.519 1.71984 41.7344C1.86339 41.8779 2.05528 41.9541 2.25011 41.9541C2.34752 41.9541 2.4464 41.9351 2.54015 41.8962L10.4693 38.5747C13.7828 40.7874 17.6258 41.9541 21.6117 41.9541C22.7711 41.9541 23.9327 41.8545 25.0643 41.6582C25.4723 41.5872 25.7462 41.199 25.6752 40.791C25.6041 40.3831 25.2152 40.1099 24.808 40.1802Z" fill="#701620"/>
<path d="M32.0454 14.3413H11.1758C10.7612 14.3413 10.4258 14.6768 10.4258 15.0913C10.4258 15.5059 10.7612 15.8413 11.1758 15.8413H32.0454C32.46 15.8413 32.7954 15.5059 32.7954 15.0913C32.7954 14.6768 32.46 14.3413 32.0454 14.3413Z" fill="#701620"/>
<path d="M32.7954 21.8423C32.7954 21.4277 32.46 21.0923 32.0454 21.0923H11.1758C10.7612 21.0923 10.4258 21.4277 10.4258 21.8423C10.4258 22.2568 10.7612 22.5923 11.1758 22.5923H32.0454C32.46 22.5923 32.7954 22.2568 32.7954 21.8423Z" fill="#701620"/>
<path d="M11.1758 27.8433C10.7612 27.8433 10.4258 28.1787 10.4258 28.5933C10.4258 29.0078 10.7612 29.3433 11.1758 29.3433H23.082C23.4966 29.3433 23.832 29.0078 23.832 28.5933C23.832 28.1787 23.4966 27.8433 23.082 27.8433H11.1758Z" fill="#701620"/>
<path d="M44.7372 31.0942L39.5831 30.345C39.4022 30.3186 39.2455 30.2051 39.1642 30.041L36.8592 25.3704C36.5099 24.6636 35.8038 24.2241 35.015 24.2241C34.2269 24.2241 33.5201 24.6636 33.1715 25.3704L30.8666 30.0403C30.7853 30.2051 30.6285 30.3186 30.4476 30.345L25.2928 31.0942C24.5128 31.2078 23.8771 31.7439 23.6332 32.4939C23.39 33.2432 23.5892 34.051 24.1532 34.6011L27.8841 38.2375C28.0145 38.365 28.0746 38.5488 28.0438 38.729L27.1627 43.8625C27.0294 44.6404 27.3436 45.4109 27.9816 45.8738C28.6195 46.3381 29.4486 46.3975 30.1459 46.0298L34.7572 43.6062C34.9191 43.5212 35.1124 43.5212 35.2743 43.6062L39.8841 46.0298C40.1881 46.1895 40.5162 46.2686 40.8429 46.2686C41.2677 46.2686 41.6888 46.1353 42.0492 45.8738C42.6871 45.4102 43.0006 44.6396 42.8673 43.8625L41.9869 38.729C41.9562 38.5488 42.0162 38.365 42.1473 38.2368L45.8776 34.6011C46.4415 34.051 46.6407 33.2432 46.3976 32.4939C46.1537 31.7439 45.5179 31.2078 44.7372 31.0942ZM44.8302 33.5273L41.1007 37.1624C40.6158 37.6348 40.3946 38.3152 40.5089 38.9824L41.3893 44.116C41.442 44.4236 41.2523 44.5994 41.1681 44.6602C41.0846 44.7217 40.859 44.8484 40.5821 44.7026L35.9723 42.2791C35.3739 41.9648 34.6576 41.9634 34.0592 42.2791L29.4479 44.7026C29.1739 44.8469 28.9462 44.7209 28.8627 44.6602C28.7784 44.5994 28.588 44.4236 28.6407 44.116L29.5218 38.9824C29.6361 38.3152 29.4149 37.6348 28.9308 37.1631L25.2006 33.5273C24.9772 33.3091 25.0277 33.0557 25.0599 32.9575C25.0922 32.8579 25.1998 32.6235 25.5089 32.5781L30.663 31.8289C31.3324 31.7322 31.911 31.3125 32.2113 30.7046L34.5162 26.0339C34.6547 25.7542 34.911 25.7241 35.015 25.7241C35.119 25.7234 35.3761 25.7542 35.5145 26.0339L37.8194 30.7053C38.1197 31.3125 38.6984 31.7322 39.3678 31.8289L44.5211 32.5781C44.8309 32.6235 44.9386 32.8579 44.9708 32.9575C45.003 33.0557 45.0536 33.3091 44.8302 33.5273Z" fill="#701620"/>
</svg>
