<svg width="48" height="48" viewBox="0 0 48 48" fill="none" xmlns="http://www.w3.org/2000/svg">
<g clip-path="url(#clip0_9002_18740)">
<path d="M37.116 44.91H35.811C35.5104 44.91 35.2658 44.6657 35.2658 44.3651V37.4452C35.2658 36.2665 35.9683 35.1903 37.0549 34.704C37.0586 34.7024 37.0621 34.7004 37.0656 34.6988C41.7907 32.5802 43.7402 27.0859 40.2711 21.0641C40.0104 20.6112 39.516 20.3301 38.9809 20.3301H27.9409C27.406 20.3301 26.9116 20.6113 26.6507 21.064C23.1933 27.0676 25.1099 32.5761 29.867 34.7041C30.9537 35.1905 31.6562 36.2664 31.6562 37.4453V44.3652C31.6562 44.6658 31.4119 44.9101 31.1113 44.9101H29.8061C28.3781 44.9101 27.2163 46.072 27.2163 47.5002C27.2163 47.7763 27.4401 48.0002 27.7162 48.0002H39.2062C39.4823 48.0002 39.7062 47.7763 39.7062 47.5002C39.706 46.0719 38.5441 44.91 37.116 44.91ZM30.2061 33.7575C28.5113 32.9765 27.0794 31.5469 26.3593 29.7096C31.0289 33.2615 36.0459 27.0742 40.9262 28.4499C40.0351 33.1956 34.6919 35.8281 30.2061 33.7575ZM27.517 21.5631C27.6001 21.4193 27.7624 21.3299 27.9409 21.3299H38.9809C39.1594 21.3299 39.3217 21.4193 39.4044 21.5631C40.3994 23.2898 41.1331 25.4663 41.0438 27.4489C35.2997 25.9666 30.3038 33.0737 25.9113 27.8891C25.682 25.7695 26.4581 23.4015 27.517 21.5631ZM28.2966 47.0001C28.5065 46.3675 29.1038 45.91 29.8059 45.91H31.1111C31.9629 45.91 32.656 45.2169 32.656 44.365V37.4451C32.656 36.6916 32.4367 35.9728 32.0541 35.3543C33.0261 35.5097 33.9405 35.4995 34.8698 35.3505C34.4858 35.9699 34.2658 36.6903 34.2658 37.4451V44.365C34.2658 45.2169 34.959 45.91 35.811 45.91H37.116C37.8182 45.91 38.4155 46.3675 38.6255 47.0001H28.2966Z" fill="#701620"/>
<path d="M16.3622 10.3454V5.17763C16.3622 4.83403 16.188 4.53066 15.9233 4.35056L16.2352 1.67353C16.3387 0.785813 15.6455 0 14.7454 0H12.4844C11.589 0 10.8906 0.781406 10.9946 1.67353L11.3064 4.35075C11.0419 4.53084 10.8677 4.83422 10.8677 5.17772V10.3454C10.8677 16.7349 5.96484 19.8968 5.96484 29.0378V45.411C5.96484 46.8385 6.92231 47.9999 8.09916 47.9999H19.1306C20.3074 47.9999 21.2649 46.8385 21.2649 45.411V29.0378C21.2649 19.87 16.3622 16.7703 16.3622 10.3454ZM12.4844 0.999844H14.7455C15.0475 0.999844 15.2762 1.26253 15.2421 1.55775L14.9368 4.17759H12.2932L11.9881 1.55775C11.9539 1.26253 12.1824 0.999844 12.4844 0.999844ZM6.96497 30.6776H12.2752C12.5509 30.6776 12.7752 30.902 12.7752 31.1776V39.6912C12.7752 39.9668 12.5509 40.1912 12.2752 40.1912H6.96497V30.6776ZM20.265 45.411C20.265 46.2723 19.7455 46.9999 19.1307 46.9999H8.09925C7.48453 46.9999 6.96497 46.2724 6.96497 45.411V41.1913H12.2752C13.1024 41.1913 13.7752 40.5185 13.7752 39.6913V31.1777C13.7752 30.3505 13.1024 29.6777 12.2752 29.6777H6.96497V29.0378C6.96497 20.1179 11.8678 17.0846 11.8678 10.3455V5.17763H15.3623V10.3453C15.3623 16.9196 20.2651 20.2461 20.2651 29.0377V45.411H20.265Z" fill="#701620"/>
</g>
<defs>
<clipPath id="clip0_9002_18740">
<rect width="48" height="48" fill="white"/>
</clipPath>
</defs>
</svg>
