<svg width="1384" height="256" viewBox="0 0 1384 256" fill="none" xmlns="http://www.w3.org/2000/svg">
<path d="M1327.73 153.789C1347.27 163.335 1361.37 171.993 1370.02 179.763C1378.9 187.533 1383.34 196.857 1383.34 207.735C1383.34 222.831 1377.57 234.486 1366.03 242.7C1354.71 250.914 1337.17 255.021 1313.41 255.021C1308.09 255.021 1302.87 254.799 1297.76 254.355C1292.88 253.911 1288.77 253.356 1285.44 252.69C1282.11 252.024 1279.23 251.469 1276.78 251.025C1274.34 250.359 1272.57 249.804 1271.46 249.36L1269.79 248.694L1266.13 207.069H1267.46C1268.79 213.285 1271.79 219.723 1276.45 226.383C1281.34 232.821 1287.11 238.26 1293.77 242.7C1300.65 246.918 1307.2 249.027 1313.41 249.027C1325.62 249.027 1334.95 246.141 1341.39 240.369C1348.05 234.597 1350.93 227.049 1350.04 217.725C1349.82 214.395 1349.16 211.62 1348.05 209.4C1346.94 206.958 1345.05 204.738 1342.39 202.74C1339.94 200.742 1337.83 199.188 1336.06 198.078C1334.28 196.968 1331.29 195.414 1327.07 193.416C1322.85 191.418 1319.74 189.864 1317.74 188.754C1308.64 184.314 1301.65 180.651 1296.76 177.765C1291.88 174.879 1286.89 171.438 1281.78 167.442C1276.9 163.224 1273.34 158.673 1271.12 153.789C1268.9 148.905 1267.79 143.355 1267.79 137.139C1267.79 132.255 1268.57 127.704 1270.12 123.486C1271.9 119.046 1274.79 114.495 1278.78 109.833C1282.78 104.949 1289.22 101.175 1298.1 98.5111C1307.2 95.6251 1318.19 94.1821 1331.06 94.1821C1337.28 94.1821 1343.61 94.6261 1350.04 95.5141C1356.48 96.4021 1361.37 97.2901 1364.7 98.1781L1369.36 99.1771L1373.02 132.477H1371.69C1369.47 123.597 1364.25 115.827 1356.04 109.167C1347.82 102.285 1339.5 98.8441 1331.06 98.8441C1318.63 98.8441 1309.09 101.397 1302.43 106.503C1295.77 111.609 1293.1 118.047 1294.43 125.817C1294.66 127.371 1295.21 129.036 1296.1 130.812C1296.99 132.366 1297.87 133.809 1298.76 135.141C1299.65 136.251 1300.98 137.583 1302.76 139.137C1304.53 140.469 1305.98 141.579 1307.09 142.467C1308.2 143.355 1309.86 144.465 1312.08 145.797C1314.52 147.129 1316.3 148.128 1317.41 148.794C1318.52 149.238 1320.41 150.126 1323.07 151.458C1325.74 152.79 1327.29 153.567 1327.73 153.789Z" fill="#5D080A"/>
<path d="M1206.3 94.515C1218.07 93.183 1227.84 96.402 1235.61 104.172C1243.38 111.72 1247.71 120.045 1248.59 129.147L1218.96 139.137C1218.96 131.145 1218.4 124.707 1217.29 119.823C1216.4 114.717 1214.85 110.832 1212.63 108.168C1210.41 105.504 1207.52 104.061 1203.97 103.839C1198.87 103.839 1193.76 106.725 1188.65 112.497C1183.77 118.269 1179.22 126.15 1175 136.14V239.703L1186.66 251.358V253.023H1127.38V251.358L1139.04 239.703V106.503H1132.38V104.838C1134.6 104.838 1138.15 104.394 1143.03 103.506C1147.92 102.396 1153.58 100.62 1160.02 98.178C1166.45 95.736 1171.45 92.961 1175 89.853V124.818C1178.11 116.604 1182.22 109.722 1187.32 104.172C1192.65 98.4 1198.98 95.181 1206.3 94.515Z" fill="#5D080A"/>
<path d="M1084.14 248.361C1091.02 247.473 1097.57 245.142 1103.79 241.368L1104.45 242.7C1096.46 250.692 1086.03 254.688 1073.15 254.688C1072.93 254.688 1072.6 254.688 1072.15 254.688C1071.93 254.91 1071.71 255.021 1071.49 255.021C1048.62 255.021 1030.19 247.917 1016.21 233.709C1002.44 219.279 995.562 199.521 995.562 174.435C995.562 150.015 1001.33 130.59 1012.88 116.16C1024.64 101.73 1040.63 94.5151 1060.83 94.5151C1074.37 94.5151 1085.47 97.8451 1094.13 104.505C1102.79 111.165 1107.12 119.379 1107.12 129.147C1107.12 136.029 1105.67 142.467 1102.79 148.461C1100.12 154.455 1096.24 159.45 1091.13 163.446C1086.25 167.442 1081.14 170.994 1075.82 174.102C1070.71 177.21 1065.05 179.763 1058.83 181.761C1052.62 183.537 1047.51 184.869 1043.51 185.757C1039.74 186.645 1036.08 187.422 1032.53 188.088C1033.86 206.736 1037.74 221.388 1044.18 232.044C1044.4 232.266 1044.62 232.599 1044.85 233.043C1045.07 233.487 1045.73 234.486 1046.84 236.04C1048.18 237.594 1049.51 238.926 1050.84 240.036C1052.17 241.146 1053.95 242.478 1056.17 244.032C1058.61 245.586 1061.05 246.696 1063.49 247.362C1066.16 247.806 1069.27 248.361 1072.82 249.027C1076.37 249.471 1080.14 249.249 1084.14 248.361ZM1032.19 174.435C1032.19 177.099 1032.19 179.874 1032.19 182.76C1051.73 177.21 1064.94 166.665 1071.82 151.125C1075.82 141.357 1077.7 132.699 1077.48 125.151C1077.26 117.603 1075.59 111.498 1072.49 106.836C1069.6 101.952 1065.83 99.2881 1061.16 98.8441C1053.39 97.9561 1046.62 104.172 1040.85 117.492C1035.08 130.59 1032.19 149.571 1032.19 174.435Z" fill="#5D080A"/>
<path d="M962.006 239.703L973.661 251.358V253.023H914.387V251.358L926.042 239.703V131.312V22.92H919.382V21.588C921.602 21.588 925.154 21.144 930.038 20.256C934.922 19.146 940.583 17.37 947.021 14.928C953.459 12.486 958.454 9.71103 962.006 6.60303V239.703Z" fill="#5D080A"/>
<path d="M882.826 239.703L894.481 251.358V253.023H835.207V251.358L846.862 239.703V22.92H840.202V21.588C842.422 21.588 845.974 21.144 850.858 20.256C855.742 19.146 861.403 17.37 867.841 14.928C874.279 12.486 879.274 9.71103 882.826 6.60303V239.703Z" fill="#5D080A"/>
<path d="M792.297 248.361C799.179 247.473 805.728 245.142 811.944 241.368L812.61 242.7C804.618 250.692 794.184 254.688 781.308 254.688C781.086 254.688 780.753 254.688 780.309 254.688C780.087 254.91 779.865 255.021 779.643 255.021C756.777 255.021 738.351 247.917 724.365 233.709C710.601 219.279 703.719 199.521 703.719 174.435C703.719 150.015 709.491 130.59 721.035 116.16C732.801 101.73 748.785 94.5151 768.987 94.5151C782.529 94.5151 793.629 97.8451 802.287 104.505C810.945 111.165 815.274 119.379 815.274 129.147C815.274 136.029 813.831 142.467 810.945 148.461C808.281 154.455 804.396 159.45 799.29 163.446C794.406 167.442 789.3 170.994 783.972 174.102C778.866 177.21 773.205 179.763 766.989 181.761C760.773 183.537 755.667 184.869 751.671 185.757C747.897 186.645 744.234 187.422 740.682 188.088C742.014 206.736 745.899 221.388 752.337 232.044C752.559 232.266 752.781 232.599 753.003 233.043C753.225 233.487 753.891 234.486 755.001 236.04C756.333 237.594 757.665 238.926 758.997 240.036C760.329 241.146 762.105 242.478 764.325 244.032C766.767 245.586 769.209 246.696 771.651 247.362C774.315 247.806 777.423 248.361 780.975 249.027C784.527 249.471 788.301 249.249 792.297 248.361ZM740.349 174.435C740.349 177.099 740.349 179.874 740.349 182.76C759.885 177.21 773.094 166.665 779.976 151.125C783.972 141.357 785.859 132.699 785.637 125.151C785.415 117.603 783.75 111.498 780.642 106.836C777.756 101.952 773.982 99.2881 769.32 98.8441C761.55 97.9561 754.779 104.172 749.007 117.492C743.235 130.59 740.349 149.571 740.349 174.435Z" fill="#5D080A"/>
<path d="M625.027 153.789C644.563 163.335 658.66 171.993 667.318 179.763C676.198 187.533 680.638 196.857 680.638 207.735C680.638 222.831 674.866 234.486 663.322 242.7C652 250.914 634.462 255.021 610.708 255.021C605.38 255.021 600.163 254.799 595.057 254.355C590.173 253.911 586.066 253.356 582.736 252.69C579.406 252.024 576.52 251.469 574.078 251.025C571.636 250.359 569.86 249.804 568.75 249.36L567.085 248.694L563.422 207.069H564.754C566.086 213.285 569.083 219.723 573.745 226.383C578.629 232.821 584.401 238.26 591.061 242.7C597.943 246.918 604.492 249.027 610.708 249.027C622.918 249.027 632.242 246.141 638.68 240.369C645.34 234.597 648.226 227.049 647.338 217.725C647.116 214.395 646.45 211.62 645.34 209.4C644.23 206.958 642.343 204.738 639.679 202.74C637.237 200.742 635.128 199.188 633.352 198.078C631.576 196.968 628.579 195.414 624.361 193.416C620.143 191.418 617.035 189.864 615.037 188.754C605.935 184.314 598.942 180.651 594.058 177.765C589.174 174.879 584.179 171.438 579.073 167.442C574.189 163.224 570.637 158.673 568.417 153.789C566.197 148.905 565.087 143.355 565.087 137.139C565.087 132.255 565.864 127.704 567.418 123.486C569.194 119.046 572.08 114.495 576.076 109.833C580.072 104.949 586.51 101.175 595.39 98.5111C604.492 95.6251 615.481 94.1821 628.357 94.1821C634.573 94.1821 640.9 94.6261 647.338 95.5141C653.776 96.4021 658.66 97.2901 661.99 98.1781L666.652 99.1771L670.315 132.477H668.983C666.763 123.597 661.546 115.827 653.332 109.167C645.118 102.285 636.793 98.8441 628.357 98.8441C615.925 98.8441 606.379 101.397 599.719 106.503C593.059 111.609 590.395 118.047 591.727 125.817C591.949 127.371 592.504 129.036 593.392 130.812C594.28 132.366 595.168 133.809 596.056 135.141C596.944 136.251 598.276 137.583 600.052 139.137C601.828 140.469 603.271 141.579 604.381 142.467C605.491 143.355 607.156 144.465 609.376 145.797C611.818 147.129 613.594 148.128 614.704 148.794C615.814 149.238 617.701 150.126 620.365 151.458C623.029 152.79 624.583 153.567 625.027 153.789Z" fill="#5D080A"/>
<path d="M544.596 240.702L545.595 241.701C541.377 246.363 537.048 249.582 532.608 251.358C528.39 253.134 522.507 254.022 514.959 254.022C510.519 254.022 506.412 253.578 502.638 252.69C499.086 251.58 495.645 249.804 492.315 247.362C488.985 244.92 486.321 241.368 484.323 236.706C482.547 231.822 481.659 226.05 481.659 219.39V97.8449H474.999V93.1829C486.987 91.1849 495.978 85.3019 501.972 75.5339C507.966 65.7659 508.965 54.1109 504.969 40.5689C498.531 23.0309 487.653 12.3749 472.335 8.60092C462.567 5.93691 452.799 6.71391 443.031 10.9319C433.485 14.9279 426.603 21.3659 422.385 30.2459C419.499 37.1279 418.278 44.4539 418.722 52.2239C419.166 59.9939 421.719 68.0969 426.381 76.5329C431.265 84.9689 437.703 92.2949 445.695 98.5109L449.358 131.478H448.026C445.806 122.82 440.589 115.05 432.375 108.168C424.161 101.286 415.836 97.8449 407.4 97.8449C394.968 97.8449 385.422 100.509 378.762 105.837C372.102 110.943 369.438 117.27 370.77 124.818C370.992 126.15 371.325 127.482 371.769 128.814C372.435 130.146 373.101 131.367 373.767 132.477C374.433 133.365 375.321 134.475 376.431 135.807C377.541 136.917 378.54 137.916 379.428 138.804C380.538 139.692 381.87 140.691 383.424 141.801C384.978 142.689 386.31 143.466 387.42 144.132C388.53 144.798 389.973 145.686 391.749 146.796C393.525 147.684 394.857 148.35 395.745 148.794C396.855 149.238 398.298 150.015 400.074 151.125C402.072 152.013 403.515 152.679 404.403 153.123C423.717 162.447 437.703 170.994 446.361 178.764C455.241 186.534 459.681 195.858 459.681 206.736C459.681 221.832 453.909 233.487 442.365 241.701C431.043 249.915 413.505 254.022 389.751 254.022C384.423 254.022 379.206 253.8 374.1 253.356C369.216 252.912 365.109 252.468 361.779 252.024C358.449 251.358 355.563 250.692 353.121 250.026C350.679 249.36 348.903 248.805 347.793 248.361L346.128 247.695L342.465 206.07H343.797C346.017 215.838 351.789 225.273 361.113 234.375C370.659 243.477 380.205 248.028 389.751 248.028C401.961 248.028 411.285 245.253 417.723 239.703C424.383 233.931 427.269 226.272 426.381 216.726C426.159 214.062 425.493 211.62 424.383 209.4C423.495 207.18 422.385 205.404 421.053 204.072C419.943 202.518 418.167 200.964 415.725 199.41C413.505 197.856 411.396 196.635 409.398 195.747C407.622 194.637 405.069 193.305 401.739 191.751C398.631 190.197 396.078 188.865 394.08 187.755C384.978 183.315 377.985 179.763 373.101 177.099C368.217 174.213 363.222 170.661 358.116 166.443C353.232 162.225 349.68 157.785 347.46 153.123C345.24 148.239 344.13 142.578 344.13 136.14C344.13 131.256 344.907 126.705 346.461 122.487C348.237 118.047 351.123 113.496 355.119 108.834C359.115 104.172 365.553 100.398 374.433 97.5119C383.535 94.6259 394.524 93.1829 407.4 93.1829C415.17 93.1829 423.162 93.8489 431.376 95.1809C423.606 87.4109 418.056 78.8639 414.726 69.5399C411.396 59.9939 410.064 51.7799 410.73 44.8979C411.618 38.0159 413.394 31.9109 416.058 26.5829C421.164 16.8149 429.267 9.48891 440.367 4.60491C451.689 -0.279082 462.9 -1.27808 474 1.60791C477.33 2.49591 480.549 3.71691 483.657 5.27092C486.765 6.60291 490.428 9.15592 494.646 12.9299C499.086 16.4819 502.86 20.8109 505.968 25.9169C509.076 31.0229 511.74 38.0159 513.96 46.8959C516.402 55.5539 517.623 65.3219 517.623 76.1999V93.1829H543.93V97.8449H517.623V218.724C517.623 231.6 520.065 239.814 524.949 243.366C530.055 246.696 536.604 245.808 544.596 240.702ZM505.635 42.8999C505.635 42.6779 505.524 42.4559 505.302 42.2339C505.302 42.0119 505.302 41.7899 505.302 41.5679L505.635 42.8999Z" fill="#5D080A"/>
<path d="M296.558 248.361C303.44 247.473 309.989 245.142 316.205 241.368L316.871 242.7C308.879 250.692 298.445 254.688 285.569 254.688C285.347 254.688 285.014 254.688 284.57 254.688C284.348 254.91 284.126 255.021 283.904 255.021C261.038 255.021 242.612 247.917 228.626 233.709C214.862 219.279 207.98 199.521 207.98 174.435C207.98 150.015 213.752 130.59 225.296 116.16C237.062 101.73 253.046 94.5151 273.248 94.5151C286.79 94.5151 297.89 97.8451 306.548 104.505C315.206 111.165 319.535 119.379 319.535 129.147C319.535 136.029 318.092 142.467 315.206 148.461C312.542 154.455 308.657 159.45 303.551 163.446C298.667 167.442 293.561 170.994 288.233 174.102C283.127 177.21 277.466 179.763 271.25 181.761C265.034 183.537 259.928 184.869 255.932 185.757C252.158 186.645 248.495 187.422 244.943 188.088C246.275 206.736 250.16 221.388 256.598 232.044C256.82 232.266 257.042 232.599 257.264 233.043C257.486 233.487 258.152 234.486 259.262 236.04C260.594 237.594 261.926 238.926 263.258 240.036C264.59 241.146 266.366 242.478 268.586 244.032C271.028 245.586 273.47 246.696 275.912 247.362C278.576 247.806 281.684 248.361 285.236 249.027C288.788 249.471 292.562 249.249 296.558 248.361ZM244.61 174.435C244.61 177.099 244.61 179.874 244.61 182.76C264.146 177.21 277.355 166.665 284.237 151.125C288.233 141.357 290.12 132.699 289.898 125.151C289.676 117.603 288.011 111.498 284.903 106.836C282.017 101.952 278.243 99.2881 273.581 98.8441C265.811 97.9561 259.04 104.172 253.268 117.492C247.496 130.59 244.61 149.571 244.61 174.435Z" fill="#5D080A"/>
<path d="M114.552 122.487C138.084 125.151 155.844 131.589 167.832 141.801C179.82 152.013 185.814 166.998 185.814 186.756C185.814 210.732 176.934 227.826 159.174 238.038C141.636 248.028 115.662 253.023 81.252 253.023H0V251.358L13.32 236.706V30.5787L0 15.9267V14.2617H85.248C140.748 14.2617 168.498 33.0207 168.498 70.5387C168.498 78.7527 166.056 86.4117 161.172 93.5157C156.288 100.398 149.85 106.281 141.858 111.165C133.866 115.827 124.764 119.601 114.552 122.487ZM79.587 20.5887C79.143 20.5887 77.478 20.5887 74.592 20.5887C71.928 20.5887 68.487 20.5887 64.269 20.5887C60.273 20.5887 56.499 20.5887 52.947 20.5887V120.489H81.252C84.804 120.489 88.023 120.378 90.909 120.156C93.795 119.712 96.903 119.046 100.233 118.158C103.563 117.27 106.56 116.16 109.224 114.828C111.888 113.274 114.441 111.276 116.883 108.834C119.547 106.17 121.656 103.173 123.21 99.8427C124.986 96.5127 126.318 92.4057 127.206 87.5217C128.316 82.4157 128.871 76.7547 128.871 70.5387C128.871 37.2387 112.443 20.5887 79.587 20.5887ZM81.252 246.696C90.576 246.696 98.79 245.808 105.894 244.032C113.22 242.256 119.88 239.259 125.874 235.041C132.09 230.601 136.863 224.385 140.193 216.393C143.523 208.179 145.188 198.3 145.188 186.756C145.188 177.432 144.078 169.218 141.858 162.114C139.638 155.01 136.641 149.349 132.867 145.131C129.093 140.691 124.32 137.139 118.548 134.475C112.998 131.589 107.226 129.591 101.232 128.481C95.238 127.371 88.689 126.816 81.585 126.816C81.363 126.816 81.141 126.816 80.919 126.816C80.697 126.816 80.586 126.816 80.586 126.816H52.947V246.696H81.252Z" fill="#5D080A"/>
</svg>
