<svg width="160" height="10" viewBox="0 0 160 10" fill="none" xmlns="http://www.w3.org/2000/svg">
<path d="M0 1.24902H1.08589L4.66075 5.86168V1.24902H5.81386V7.92777H4.83366L1.15322 3.18056V7.92777H0V1.24902Z" fill="white"/>
<path d="M7.38868 8.87104L7.82106 8.00615C8.3592 8.34249 8.92616 8.54423 9.61805 8.54423C10.6463 8.54423 11.2133 8.01571 11.2133 6.9971V6.60319C10.7905 7.15093 10.2716 7.52567 9.43553 7.52567C8.25355 7.52567 7.14844 6.65124 7.14844 5.17137V5.15213C7.14844 3.66264 8.25355 2.78809 9.43553 2.78809C10.2812 2.78809 10.8097 3.18209 11.2037 3.64335V2.89389H12.3569V6.90102C12.3569 7.73706 12.1454 8.37127 11.7226 8.80371C11.2614 9.26497 10.5694 9.47645 9.65653 9.47645C8.82049 9.47645 8.06137 9.27464 7.40792 8.87104H7.38868ZM11.2133 5.17137V5.15213C11.2133 4.3257 10.5406 3.75867 9.73336 3.75867C8.92616 3.75867 8.30154 4.31608 8.30154 5.14251V5.16175C8.30154 5.98817 8.93577 6.55509 9.73336 6.55509C10.531 6.55509 11.2133 5.97857 11.2133 5.17137Z" fill="white"/>
<path d="M13.5117 5.42939V5.41026C13.5117 3.96882 14.6553 2.77713 16.2025 2.77713C17.7496 2.77713 18.8836 3.94959 18.8836 5.39103V5.41026C18.8836 6.83249 17.74 8.03367 16.1832 8.03367C14.6265 8.03367 13.5117 6.86122 13.5117 5.42939ZM15.6546 0.845703H16.7214L17.836 2.24867H16.9232L16.1832 1.6144L15.4529 2.24867H14.5592L15.6643 0.845703H15.6546ZM17.7206 5.42939V5.41026C17.7206 4.52618 17.0865 3.78618 16.1736 3.78618C15.2607 3.78618 14.6552 4.50694 14.6552 5.39103V5.41026C14.6552 6.28474 15.3088 7.03423 16.1928 7.03423C17.1346 7.03423 17.7206 6.30386 17.7206 5.42939Z" fill="white"/>
<path d="M20.0742 1.01862H21.3139V2.11412H20.0742V1.01862ZM20.1221 2.88294H21.2754V7.91836H20.1221V2.88294Z" fill="white"/>
<path d="M25.6484 2.88413H26.8018V3.66245C27.1285 3.18197 27.5897 2.77832 28.3776 2.77832C29.5212 2.77832 30.1748 3.52788 30.1748 4.70986V7.90993H29.0214V5.04629C29.0214 4.2583 28.6275 3.81623 27.9453 3.81623C27.263 3.81623 26.8114 4.27742 26.8114 5.06541V7.90993H25.6581V2.87451L25.6484 2.88413Z" fill="white"/>
<path d="M31.5586 0.960938H32.7117V3.67079C33.0384 3.19031 33.4998 2.78667 34.2878 2.78667C35.4313 2.78667 36.0847 3.53623 36.0847 4.71821V7.91828H34.9316V5.05464C34.9316 4.26665 34.5375 3.82458 33.8552 3.82458C33.1729 3.82458 32.7213 4.28577 32.7213 5.07376V7.91828H31.5682V0.960938H31.5586Z" fill="white"/>
<path d="M40.5516 7.91874V7.30371C40.2056 7.71692 39.6867 8.02443 38.918 8.02443C37.9666 8.02443 37.1211 7.4863 37.1211 6.46768V6.44844C37.1211 5.33373 37.9762 4.79562 39.1582 4.79562C39.7732 4.79562 40.1576 4.88207 40.5516 5.007V4.91093C40.5516 4.21904 40.1097 3.83466 39.3121 3.83466C38.7355 3.83466 38.3319 3.95954 37.8707 4.15173L37.5535 3.22925C38.1204 2.96979 38.6394 2.80636 39.4658 2.80636C40.9649 2.80636 41.676 3.58482 41.676 4.93016V7.91874H40.5325H40.5516ZM40.5804 5.81417C40.2825 5.69886 39.879 5.61241 39.4273 5.61241C38.7066 5.61241 38.2742 5.91025 38.2742 6.39073V6.40996C38.2742 6.90005 38.7066 7.14992 39.2448 7.14992C40.0039 7.14992 40.5804 6.72712 40.5804 6.09289V5.80455V5.81417ZM38.3608 1.15354L39.4081 0.682678L40.3979 2.24905H39.5331L38.3608 1.15354Z" fill="white"/>
<path d="M45.6562 5.41146C45.6562 3.97963 46.7613 2.77832 48.27 2.77832C49.2214 2.77832 49.8173 3.12429 50.2785 3.64321L49.5674 4.41202C49.2119 4.03725 48.8466 3.77776 48.2604 3.77776C47.4244 3.77776 46.8094 4.49852 46.8094 5.3826V5.40184C46.8094 6.28592 47.434 7.02581 48.3181 7.02581C48.8659 7.02581 49.2504 6.76631 49.6251 6.39154L50.317 7.0739C49.8173 7.64087 49.2406 8.01562 48.2604 8.01562C46.7613 8.01562 45.6562 6.84329 45.6562 5.41146Z" fill="white"/>
<path d="M51.326 6.09328V2.89289H52.4791V5.75692C52.4791 6.54502 52.873 6.98703 53.5553 6.98703C54.2376 6.98703 54.6894 6.52577 54.6894 5.73768V2.89289H55.8425V7.92899H54.6894V7.15046C54.353 7.64061 53.8917 8.0347 53.1133 8.0347C51.9697 8.0347 51.3164 7.28504 51.3164 6.1029L51.326 6.09328ZM53.2766 1.46076C53.6513 1.42232 53.8725 1.29746 53.8725 0.95147C53.8725 0.864972 53.7955 0.711197 53.5745 0.711197C53.4592 0.711197 53.2863 0.78808 53.171 1.0668L52.5368 0.768802C52.8251 0.124871 53.2959 0 53.5938 0C54.1607 0 54.6028 0.41325 54.6028 0.94185C54.6028 1.47045 54.2377 1.74914 53.8917 1.87408L53.8436 2.24892H53.3247L53.2576 1.46076H53.2766Z" fill="white"/>
<path d="M60.376 7.91999V7.30496C60.0301 7.71818 59.5112 8.02568 58.7424 8.02568C57.7911 8.02568 56.9453 7.48755 56.9453 6.46893V6.44969C56.9453 5.33498 57.8007 4.79687 58.9827 4.79687C59.5977 4.79687 59.982 4.88333 60.376 5.00825V4.91218C60.376 4.22029 59.9339 3.83591 59.1363 3.83591C58.5598 3.83591 58.1562 3.96079 57.6949 4.15298L57.3777 3.2305C57.9447 2.97104 58.4636 2.80762 59.29 2.80762C60.7891 2.80762 61.5003 3.58607 61.5003 4.93142V7.91999H60.3568H60.376ZM60.4049 5.81543C60.107 5.70011 59.7034 5.61366 59.2518 5.61366C58.531 5.61366 58.0984 5.9115 58.0984 6.39198V6.41122C58.0984 6.90131 58.5309 7.15118 59.069 7.15118C59.8282 7.15118 60.4049 6.72838 60.4049 6.09414V5.80581V5.81543Z" fill="white"/>
<path d="M65.7578 2.88436H66.9109V4.01823C67.228 3.25907 67.8045 2.74973 68.6982 2.78817V4.00861H68.6311C67.6125 4.00861 66.9109 4.66213 66.9109 5.99786V7.91016H65.7578V2.87474V2.88436Z" fill="white"/>
<path d="M69.6424 6.09332V2.89336H70.7958V5.757C70.7958 6.54499 71.1896 6.98694 71.8719 6.98694C72.5542 6.98694 73.0058 6.52575 73.0058 5.73777V2.89336H73.9475C74.1493 2.8357 74.2455 2.74919 74.2455 2.62426C74.2455 2.48012 74.207 2.17263 73.986 1.79785H75.0912C75.2354 2.41287 75.2353 2.70107 75.2353 2.78755C75.2353 3.37374 74.8606 3.73892 74.1591 3.88306V7.92878H73.0058V7.15035C72.6695 7.64044 72.2083 8.03447 71.4299 8.03447C70.2864 8.03447 69.6328 7.28492 69.6328 6.10293L69.6424 6.09332Z" fill="white"/>
<path d="M75.3672 5.43003V5.4109C75.3672 3.96927 76.5105 2.77741 78.0577 2.77741C78.7015 2.77741 79.2781 2.98893 79.7394 3.34454C79.9412 3.27726 80.0469 3.18111 80.0469 3.06578C80.0469 2.92162 80.0085 2.61408 79.7875 2.23926H80.8927C81.0369 2.84474 81.0368 3.14271 81.0368 3.22921C81.0271 3.65209 80.8252 3.95961 80.4312 4.16144C80.6234 4.53626 80.7388 4.93995 80.7388 5.39166V5.4109C80.7388 6.83332 79.5952 8.03466 78.0385 8.03466C76.4817 8.03466 75.3672 6.86205 75.3672 5.43003ZM79.5857 5.43003V5.4109C79.5857 4.5267 78.9514 3.7866 78.0385 3.7866C77.1255 3.7866 76.5203 4.50746 76.5203 5.39166V5.4109C76.5203 6.28549 77.164 7.03509 78.0577 7.03509C78.9994 7.03509 79.5857 6.30462 79.5857 5.43003ZM77.5101 8.56319H78.5766V9.75493H77.5101V8.56319Z" fill="white"/>
<path d="M81.8534 6.09351V2.89355H83.0065V5.7572C83.0065 6.54518 83.4003 6.98714 84.0826 6.98714C84.7649 6.98714 85.2167 6.52595 85.2167 5.73796V2.89355H86.3698V7.92898H85.2167V7.15054C84.8804 7.64063 84.419 8.03467 83.6406 8.03467C82.4971 8.03467 81.8438 7.28511 81.8438 6.10313L81.8534 6.09351Z" fill="white"/>
<path d="M90.207 2.88477H91.4467L92.8016 6.58444L94.1661 2.88477H95.3769L93.3205 7.95855H92.2826L90.2167 2.88477H90.207Z" fill="white"/>
<path d="M99.2 7.91999V7.30496C98.854 7.71818 98.3352 8.02568 97.5664 8.02568C96.6151 8.02568 95.7695 7.48755 95.7695 6.46893V6.44969C95.7695 5.33498 96.6247 4.79687 97.8066 4.79687C98.4217 4.79687 98.806 4.88333 99.2 5.00825V4.91218C99.2 4.22029 98.7579 3.83591 97.9603 3.83591C97.3837 3.83591 96.9801 3.96079 96.5189 4.15298L96.2019 3.2305C96.7689 2.97104 97.2878 2.80762 98.1142 2.80762C99.6133 2.80762 100.324 3.58607 100.324 4.93142V7.91999H99.1808H99.2ZM99.2288 5.81543C98.9309 5.70011 98.5274 5.61366 98.0757 5.61366C97.355 5.61366 96.9226 5.9115 96.9226 6.39198V6.41122C96.9226 6.90131 97.3551 7.15118 97.8932 7.15118C98.6524 7.15118 99.2288 6.72838 99.2288 6.09414V5.80581V5.81543Z" fill="white"/>
<path d="M101.719 2.88413H102.872V3.66245C103.199 3.18197 103.66 2.77832 104.448 2.77832C105.591 2.77832 106.245 3.52788 106.245 4.70986V7.90993H105.092V5.04629C105.092 4.2583 104.698 3.81623 104.015 3.81623C103.333 3.81623 102.881 4.27742 102.881 5.06541V7.90993H101.728V2.87451L101.719 2.88413Z" fill="white"/>
<path d="M107.627 8.87104L108.059 8.00615C108.597 8.34249 109.165 8.54423 109.856 8.54423C110.885 8.54423 111.452 8.01571 111.452 6.9971V6.60319C111.029 7.15093 110.51 7.52567 109.674 7.52567C108.492 7.52567 107.387 6.65124 107.387 5.17137V5.15213C107.387 3.66264 108.492 2.78809 109.674 2.78809C110.52 2.78809 111.048 3.18209 111.442 3.64335V2.89389H112.595V6.90102C112.595 7.73706 112.384 8.37127 111.951 8.80371C111.49 9.26497 110.798 9.47645 109.885 9.47645C109.049 9.47645 108.29 9.27464 107.637 8.87104H107.627ZM111.452 5.17137V5.15213C111.452 4.3257 110.779 3.75867 109.972 3.75867C109.164 3.75867 108.54 4.31608 108.54 5.14251V5.16175C108.54 5.98817 109.174 6.55509 109.972 6.55509C110.769 6.55509 111.452 5.97857 111.452 5.17137Z" fill="white"/>
<path d="M116.883 0.960938H118.036V3.67079C118.363 3.19031 118.824 2.78667 119.612 2.78667C120.755 2.78667 121.409 3.53623 121.409 4.71821V7.91828H120.256V5.05464C120.256 4.26665 119.862 3.82458 119.179 3.82458C118.497 3.82458 118.046 4.28577 118.046 5.07376V7.91828H116.892V0.960938H116.883Z" fill="white"/>
<path d="M125.876 7.91937V7.30426C125.53 7.71753 125.011 8.02508 124.242 8.02508C123.291 8.02508 122.445 7.48687 122.445 6.46812V6.44888C122.445 5.33401 123.3 4.79583 124.482 4.79583C125.097 4.79583 125.482 4.8823 125.876 5.00724V4.91116C125.876 4.21917 125.434 3.83474 124.636 3.83474C124.06 3.83474 123.656 3.95964 123.195 4.15186L122.878 3.22925C123.445 2.96975 123.964 2.80631 124.8 2.80631C126.299 2.80631 127.01 3.58487 127.01 4.9304V7.91937H125.866H125.876ZM125.905 5.81453C125.607 5.6992 125.203 5.61273 124.752 5.61273C124.031 5.61273 123.598 5.91061 123.598 6.39116V6.4104C123.598 6.90055 124.031 7.15046 124.569 7.15046C125.328 7.15046 125.905 6.7276 125.905 6.09328V5.80491V5.81453ZM124.771 1.46076C125.146 1.42232 125.376 1.29746 125.376 0.95147C125.376 0.864972 125.299 0.711197 125.078 0.711197C124.963 0.711197 124.79 0.78808 124.675 1.0668L124.05 0.768802C124.338 0.124871 124.809 0 125.107 0C125.674 0 126.116 0.41325 126.116 0.94185C126.116 1.47045 125.751 1.74914 125.405 1.87408L125.357 2.24892H124.838L124.771 1.46076Z" fill="white"/>
<path d="M128.125 5.43058V5.41146C128.125 3.97002 129.269 2.77832 130.816 2.77832C132.363 2.77832 133.497 3.95078 133.497 5.39222V5.41146C133.497 6.83368 132.353 8.03486 130.796 8.03486C129.24 8.03486 128.125 6.86241 128.125 5.43058ZM132.344 5.43058V5.41146C132.344 4.52738 131.709 3.78738 130.796 3.78738C129.884 3.78738 129.278 4.50814 129.278 5.39222V5.41146C129.278 6.28593 129.922 7.03543 130.816 7.03543C131.757 7.03543 132.344 6.30505 132.344 5.43058Z" fill="white"/>
<path d="M137.523 0.960938H138.677V3.67079C139.003 3.19031 139.464 2.78667 140.252 2.78667C141.396 2.78667 142.05 3.53623 142.05 4.71821V7.91828H140.896V5.05464C140.896 4.26665 140.502 3.82458 139.82 3.82458C139.138 3.82458 138.686 4.28577 138.686 5.07376V7.91828H137.533V0.960938H137.523Z" fill="white"/>
<path d="M146.516 7.91999V7.30496C146.17 7.71818 145.652 8.02568 144.883 8.02568C143.931 8.02568 143.086 7.48755 143.086 6.46893V6.44969C143.086 5.33498 143.941 4.79687 145.123 4.79687C145.738 4.79687 146.122 4.88333 146.516 5.00825V4.91218C146.516 4.22029 146.075 3.83591 145.277 3.83591C144.7 3.83591 144.297 3.96079 143.836 4.15298L143.518 3.2305C144.085 2.97104 144.604 2.80762 145.44 2.80762C146.939 2.80762 147.65 3.58607 147.65 4.93142V7.91999H146.507H146.516ZM146.545 5.81543C146.247 5.70011 145.844 5.61366 145.392 5.61366C144.671 5.61366 144.239 5.9115 144.239 6.39198V6.41122C144.239 6.90131 144.671 7.15118 145.21 7.15118C145.969 7.15118 146.545 6.72838 146.545 6.09414V5.80581V5.81543ZM144.989 8.56376H146.055V9.75534H144.989V8.56376Z" fill="white"/>
<path d="M149.047 2.88413H150.2V3.66245C150.527 3.18197 150.988 2.77832 151.776 2.77832C152.919 2.77832 153.573 3.52788 153.573 4.70986V7.90993H152.42V5.04629C152.42 4.2583 152.026 3.81623 151.343 3.81623C150.661 3.81623 150.21 4.27742 150.21 5.06541V7.90993H149.056V2.87451L149.047 2.88413Z" fill="white"/>
<path d="M154.943 8.87104L155.376 8.00615C155.914 8.34249 156.481 8.54423 157.173 8.54423C158.201 8.54423 158.768 8.01571 158.768 6.9971V6.60319C158.345 7.15093 157.826 7.52567 156.99 7.52567C155.808 7.52567 154.703 6.65124 154.703 5.17137V5.15213C154.703 3.66264 155.808 2.78809 156.99 2.78809C157.836 2.78809 158.364 3.18209 158.758 3.64335V2.89389H159.912V6.90102C159.912 7.73706 159.7 8.37127 159.268 8.80371C158.806 9.26497 158.115 9.47645 157.202 9.47645C156.366 9.47645 155.606 9.27464 154.953 8.87104H154.943ZM158.768 5.17137V5.15213C158.768 4.3257 158.095 3.75867 157.288 3.75867C156.481 3.75867 155.856 4.31608 155.856 5.14251V5.16175C155.856 5.98817 156.491 6.55509 157.288 6.55509C158.086 6.55509 158.768 5.97857 158.768 5.17137Z" fill="white"/>
</svg>
