<svg width="69" height="111" viewBox="0 0 69 111" fill="none" xmlns="http://www.w3.org/2000/svg">
<path d="M8.80287 60.5914C-0.316649 52.4894 -2.40194 43.3495 2.78724 34.9303C7.8419 26.7418 16.9229 24.4353 27.9163 28.7217C28.5217 22.5707 30.6358 17.0636 36.0556 13.7671C38.9961 11.9795 42.4941 11.1049 46.2515 9.61523V14.8435C34.7968 18.1016 30.0977 25.9249 34.4701 34.296C45.7614 24.3006 56.0435 23.6856 63.8561 32.5372C71.1882 40.841 69.5931 51.8743 59.6087 60.5914C60.3679 61.1969 61.1175 61.7448 61.819 62.3503C67.3829 67.1653 69.4392 73.3163 67.9209 80.3899C66.4218 87.3771 61.9631 92.0287 55.0345 93.9317C53.0453 94.4795 52.267 95.431 51.7385 97.2955C49.4322 105.407 42.5037 110.568 34.2298 110.549C25.8599 110.52 19.1523 105.417 16.5865 97.3627C16.2021 96.1517 15.0971 94.6044 14.0016 94.2776C6.7175 92.1056 1.91261 87.5116 0.46156 80.0919C-1.06637 72.2879 1.61472 65.8583 8.15886 61.1681C8.33183 61.0432 8.48575 60.8797 8.80287 60.5914ZM15.9427 63.1768C8.1013 65.2912 3.82489 71.5287 4.99726 78.6792C6.09276 85.3299 12.3872 90.366 19.0659 89.9431C25.4562 89.5395 30.9338 84.4842 31.126 78.6792C22.9386 76.757 17.8743 71.5767 15.9427 63.1768ZM52.6321 57.737C60.0604 56.007 64.4231 49.8849 63.4814 42.7151C62.6069 36.0644 56.4375 30.8361 49.7396 31.0763C43.2147 31.307 37.6315 36.2759 37.2375 42.177C46.8952 45.6946 48.9132 47.7224 52.6321 57.737ZM31.3277 42.321C30.2995 35.555 24.4087 30.788 17.8166 31.0956C10.9457 31.4127 5.28568 36.8814 4.88207 43.5994C4.44964 50.6922 9.02387 56.5549 15.9908 57.6505C17.8551 49.4524 22.8809 44.2625 31.3277 42.3307V42.321ZM47.2509 58.1022C46.0785 51.0766 40.3414 46.6845 33.1054 47.117C26.3786 47.5207 20.9109 53.2487 20.7091 60.0821C20.5169 66.7617 25.2353 72.5377 31.6257 73.4508C36.4209 62.6577 37.9872 61.1104 47.2413 58.0926L47.2509 58.1022ZM21.0166 94.6814C22.8809 102.216 28.983 106.608 35.873 105.734C42.7343 104.859 47.8563 98.7659 47.7314 91.8461C47.6161 85.8489 42.0711 79.1404 36.4687 79.4768C34.5948 87.6845 29.3866 92.7111 21.0263 94.6814H21.0166ZM52.44 89.4914C59.5799 88.1555 64.0292 82.312 63.5391 75.248C63.0683 68.5012 57.2928 63.0518 50.5084 62.9461C43.6088 62.8404 37.9968 67.4344 37.1416 74.1429C45.3674 75.9113 50.4508 81.0435 52.44 89.4914Z" fill="white"/>
<path d="M5.95966 0.0528709C18.7212 -0.937052 29.4456 12.1434 26.457 25.0701C13.5801 25.9158 3.096 13.1141 5.95966 0.0528709ZM10.4475 5.35811C10.707 12.3741 15.896 18.6307 21.8732 19.39C21.854 13.1237 17.4145 7.57823 10.4475 5.35811Z" fill="white"/>
</svg>
