<svg width="300" height="65" viewBox="0 0 300 65" fill="none" xmlns="http://www.w3.org/2000/svg">
<path d="M43.114 29.8659V64.2175H33.3125V26.5259C33.3125 22.948 31.8921 19.5727 29.4043 17.2726C26.343 14.4438 22.6642 13.8974 18.4207 15.6335C15.4212 16.8673 12.8892 19.0352 11.0718 21.723C10.1102 23.1418 9.36915 24.5166 8.82218 25.6623V64.2175H0V11.7383H8.82218V23.5825C9.86319 21.6789 11.3277 19.4846 13.2862 17.493L13.2685 17.4753C13.2685 17.4753 13.3479 17.4225 13.3832 17.3872C16.471 14.2852 20.7674 11.7383 26.5459 11.7383C42.9287 11.7383 43.114 29.6808 43.114 29.8659Z" fill="#69624A"/>
<path d="M90.3718 29.866V64.2176H80.5703V26.526C80.5703 22.9481 79.1499 19.5728 76.6621 17.2727C72.5862 13.5009 67.3988 13.7829 61.2498 18.1275C58.7619 20.6479 57.0857 23.5473 56.08 25.6536V64.2088H47.2578V0H56.08V23.5738C57.1298 21.6703 58.5855 19.4759 60.544 17.4842L60.5263 17.4666C60.5263 17.4666 60.6058 17.4137 60.641 17.3785C63.7288 14.2764 68.0252 11.7208 73.8037 11.7208C90.1865 11.7208 90.3718 29.6633 90.3718 29.8484V29.866Z" fill="#69624A"/>
<path d="M142.478 19.7755C151.75 30.7032 149.871 47.6146 138.34 57.6787C138.225 57.7756 138.111 57.8814 137.996 57.9783C137.881 58.0753 137.758 58.1722 137.643 58.2691C125.813 67.9895 108.803 67.0906 99.5313 56.1629C90.2504 45.2353 92.1383 28.3238 103.669 18.2598C103.784 18.1628 103.898 18.0571 104.013 17.9601C104.128 17.8632 104.251 17.7663 104.366 17.6694C116.196 7.94903 133.206 8.84787 142.478 19.7755ZM134.573 26.4732C125.68 16.0038 112.526 12.4611 104.983 18.4008C104.86 18.4977 104.745 18.5947 104.631 18.6916C104.516 18.7885 104.401 18.8943 104.286 19.0001C97.1934 25.4685 98.552 39.0135 107.436 49.4829C116.32 59.9523 129.483 63.495 137.026 57.5553C137.149 57.4584 137.264 57.3614 137.387 57.2645C137.511 57.1676 137.625 57.0618 137.731 56.956C144.833 50.4876 143.475 36.9426 134.582 26.4732H134.573Z" fill="#69624A"/>
<path d="M194.739 29.8659V64.2175H184.938V26.5259C184.938 22.948 183.517 19.5727 181.029 17.2726C177.968 14.4438 174.289 13.8974 170.046 15.6335C167.046 16.8673 164.514 19.0352 162.697 21.723C161.735 23.1418 160.994 24.5166 160.447 25.6623V64.2175H151.625V11.7383H160.447V23.5825C161.488 21.6789 162.953 19.4846 164.911 17.493L164.894 17.4753C164.894 17.4753 164.973 17.4225 165.008 17.3872C168.096 14.2852 172.392 11.7383 178.171 11.7383C194.554 11.7383 194.739 29.6808 194.739 29.8659Z" fill="#69624A"/>
<path d="M242.001 29.866V64.2176H232.199V26.526C232.199 22.9481 230.779 19.5728 228.291 17.2727C224.215 13.5009 219.028 13.7829 212.879 18.1275C210.391 20.6479 208.715 23.5473 207.709 25.6536V64.2088H198.887V0H207.709V23.5738C208.759 21.6703 210.214 19.4759 212.173 17.4842L212.155 17.4666C212.155 17.4666 212.235 17.4137 212.27 17.3785C215.358 14.2764 219.654 11.7208 225.433 11.7208C241.815 11.7208 242.001 29.6633 242.001 29.8484V29.866Z" fill="#69624A"/>
<path d="M294.103 19.7755C303.375 30.7032 301.496 47.6146 289.965 57.6787C289.85 57.7756 289.736 57.8814 289.621 57.9783C289.506 58.0753 289.383 58.1722 289.268 58.2691C277.438 67.9895 260.428 67.0906 251.156 56.1629C241.875 45.2353 243.763 28.3238 255.294 18.2598C255.409 18.1628 255.523 18.0571 255.638 17.9601C255.753 17.8632 255.876 17.7663 255.991 17.6694C267.821 7.94903 284.831 8.84787 294.103 19.7755ZM286.198 26.4732C277.305 16.0038 264.151 12.4611 256.608 18.4008C256.485 18.4977 256.37 18.5947 256.255 18.6916C256.141 18.7885 256.026 18.8943 255.911 19.0001C248.818 25.4685 250.177 39.0135 259.061 49.4829C267.945 59.9523 281.108 63.495 288.651 57.5553C288.774 57.4584 288.889 57.3614 289.012 57.2645C289.136 57.1676 289.25 57.0618 289.356 56.956C296.458 50.4876 295.1 36.9426 286.207 26.4732H286.198Z" fill="#69624A"/>
</svg>
